<?xml version="1.0" standalone="no"?>
<!DOCTYPE svg PUBLIC "-//W3C//DTD SVG 20010904//EN"
 "http://www.w3.org/TR/2001/REC-SVG-20010904/DTD/svg10.dtd">
<svg version="1.0" xmlns="http://www.w3.org/2000/svg"
 width="260.000000pt" height="260.000000pt" viewBox="0 0 260.000000 260.000000"
 preserveAspectRatio="xMidYMid meet">
<metadata>
Created by potrace 1.14, written by Peter Selinger 2001-2017
</metadata>
<g transform="translate(0.000000,260.000000) scale(0.100000,-0.100000)"
fill="#000000" stroke="none">
<path d="M747 2590 c-217 -38 -418 -155 -551 -322 -76 -94 -124 -186 -163
-313 l-28 -90 0 -565 0 -565 28 -90 c96 -308 304 -515 614 -612 l88 -28 565 0
565 0 88 28 c293 91 506 293 596 562 50 150 52 189 49 751 l-4 519 -27 90
c-95 307 -305 516 -614 612 l-88 27 -535 2 c-294 1 -557 -2 -583 -6z m446
-960 l148 0 -3 -42 -3 -43 -85 0 -86 0 -42 -200 c-43 -206 -60 -301 -64 -369
-3 -36 -6 -41 -36 -48 -19 -5 -57 -8 -85 -6 -64 4 -64 -28 9 336 31 151 53
281 50 289 -5 12 -17 14 -63 8 -31 -4 -67 -11 -80 -16 -26 -10 -39 6 -44 56
-5 39 19 46 141 40 52 -3 162 -5 243 -5z m587 -20 c55 -28 75 -69 74 -152 -2
-155 -114 -258 -280 -258 l-53 0 -12 -57 c-6 -32 -17 -91 -24 -131 -7 -40 -16
-76 -19 -79 -3 -3 -40 -8 -82 -11 l-76 -5 6 29 c3 16 26 126 51 244 25 118 49
243 52 276 5 57 3 65 -22 99 -36 46 -29 51 84 60 47 4 91 8 96 11 27 11 167
-7 205 -26z"/>
<path d="M1603 1558 c-6 -10 -63 -268 -63 -287 0 -8 62 10 84 25 62 40 96 205
52 253 -21 23 -61 28 -73 9z"/>
</g>
</svg>
